<svg width="504" height="100" viewBox="0 0 504 100" fill="none" xmlns="http://www.w3.org/2000/svg">
<path d="M31.3318 1.87886C33.9273 1.51419 38.9201 1.78257 41.7098 1.78388L62.2611 1.79757L89.0189 1.78073C94.3243 1.77283 102.264 1.48683 107.258 2.40193C112.602 3.40886 117.612 5.73003 121.835 9.15626C128.604 14.6119 132.934 22.5276 133.878 31.1695C134.214 34.3363 134.136 43.2762 134.06 46.7719C133.908 53.6833 134.71 65.8109 133.246 72.2119C132.128 77.0887 129.91 81.6452 126.761 85.5335C120.546 93.1932 112.697 96.7649 103.077 97.7495C88.5845 98.1694 72.2215 97.8068 57.6055 97.8081L41.3809 97.8079C36.2478 97.8068 31.145 98.0423 26.1048 97.0049C20.7986 95.8861 15.857 93.4557 11.7319 89.9353C-4.16996 76.5024 1.04182 58.1825 0.113344 40.0273C-0.0958211 35.936 0.11045 31.0003 1.05314 27.0415C2.26998 21.9958 4.66682 17.3109 8.04635 13.3716C14.1534 6.22336 22.0759 2.61005 31.3318 1.87886Z" fill="#FF0002"/>
<path d="M73.8791 12.8871C81.876 12.829 80.5234 20.376 80.4732 26.0258L80.4358 37.7628C96.0137 24.972 116.802 35.3836 118.038 54.9275C118.514 62.4601 116.326 68.5033 111.311 74.1407C108.615 76.9731 105.259 79.0919 101.543 80.307C95.327 82.3153 87.9413 81.8301 82.1141 78.843C76.4903 75.897 72.2707 70.8336 70.3861 64.771C69.5653 62.1999 69.0709 58.9684 69.0846 56.2465C69.1459 43.8369 69.0025 31.4146 69.0951 19.0084C69.1214 15.489 70.5393 13.8703 73.8791 12.8871Z" fill="white"/>
<path d="M91.43 43.0225C99.1115 41.8319 106.29 47.1339 107.411 54.8259C108.531 62.5183 103.165 69.6486 95.4634 70.6997C87.8598 71.7377 80.8402 66.4542 79.7334 58.8597C78.6268 51.2655 83.8464 44.1981 91.43 43.0225Z" fill="#FF0002"/>
<path d="M39.22 30.5618C43.2483 30.2334 47.8528 31.154 51.4755 32.9124C57.3018 35.7448 61.753 40.7907 63.8359 46.9254C64.4624 48.7335 64.866 50.6111 65.0372 52.5168C65.6576 59.0091 64.8744 66.9087 65.1696 73.6362C65.4482 79.9767 56.1245 82.908 53.7297 74.4842C50.9477 76.6283 49.7582 77.3511 46.4871 78.6924C44.803 79.2097 43.072 79.5609 41.3193 79.7406C11.1146 82.7591 5.52077 33.5902 39.22 30.5618Z" fill="white"/>
<path d="M38.2769 41.0286C41.6204 40.7684 44.8999 40.88 47.7293 42.8336C58.037 49.9513 55.8302 66.5709 43.0814 69.3397C24.6101 71.293 21.0041 45.5991 38.2769 41.0286Z" fill="#FF0002"/>
<path fill-rule="evenodd" clip-rule="evenodd" d="M192.487 11.0079C200.319 10.7532 199.79 16.7002 199.721 22.3481C199.675 26.1235 199.673 29.9705 199.664 33.7477L199.696 48.6547C199.707 52.6146 199.901 57.2684 199.129 61.0844C198.324 65.005 196.603 68.6822 194.105 71.8193C185.115 83.1839 168.879 83.8337 157.803 75.0265C135.333 55.1624 159.805 16.3272 187.221 35.4372C187.247 31.1351 186.45 16.6671 188.145 13.7596C189.091 12.1357 190.751 11.4517 192.487 11.0079ZM187.956 54.0591C187.03 46.6725 180.286 41.4119 172.854 42.2788C165.344 43.1547 159.988 49.9479 160.924 57.4115C161.859 64.8751 168.727 70.1522 176.223 69.167C183.643 68.1922 188.882 61.446 187.956 54.0591Z" fill="#181A1B"/>
<path fill-rule="evenodd" clip-rule="evenodd" d="M345.298 30.4444C359.276 30.1699 368.281 40.4239 368.688 53.8983C368.783 57.0279 367.272 60.0902 363.833 60.4214C360.423 60.7497 356.851 60.6118 353.415 60.6096L332.87 60.5922C333.105 61.1651 333.365 61.7272 333.648 62.2767C337.177 68.9636 344.406 71.4535 351.468 69.0797C355.527 67.7149 357.487 64.8554 362.094 66.2882C364.842 67.8111 366.862 71.6549 364.471 74.3402C361.134 78.0885 354.683 80.2001 349.816 80.8261C335.853 82.6222 322.418 73.6121 320.91 59.2659C319.268 44.4289 327.654 32.3586 342.835 30.562C343.654 30.5053 344.476 30.4664 345.298 30.4444ZM356.594 50.1379C354.303 43.2001 350.398 41.1874 343.319 41.6264C338.251 42.5269 334.64 45.0791 333.061 50.1358L356.594 50.1379Z" fill="#181A1B"/>
<path d="M441.243 30.7745C441.679 30.7472 442.114 30.7291 442.55 30.72C445.71 30.6652 448.205 32.7223 448.748 35.8346C449.163 38.2191 448.955 40.8831 448.964 43.3185C448.862 47.6911 448.989 52.3235 448.899 56.6645C448.739 64.4143 452.313 69.6485 460.575 69.5074C465.45 69.424 470.123 67.2484 471.158 62.0283C471.585 59.8795 471.403 57.1354 471.391 54.9109L471.314 42.768C471.282 38.3358 470.642 26.3348 482.003 32.2833C484.753 33.7232 483.87 46.3362 483.846 50.3778L483.878 66.6243C483.883 71.0242 485.17 79.4568 479.178 80.5394C475.851 81.1403 473.683 80.044 471.886 77.2383C464.802 81.6491 456.252 82.4861 448.564 79.012C443.707 76.7631 439.943 72.6848 438.11 67.6756C437.324 65.5425 436.822 63.3165 436.614 61.0541C435.872 53.6129 436.737 44.7021 436.415 37.1181C436.276 33.8928 438.236 31.853 441.243 30.7745Z" fill="#181A1B"/>
<path d="M295.72 61.9732L305.317 41.2795C306.478 38.7484 309.116 31.5925 311.825 31.3028C326.456 29.739 316.974 44.3575 314.68 49.1392C311.501 55.6515 308.367 62.1864 305.282 68.7435C304.4 70.5949 301.606 76.7277 300.572 78.1567C299.919 79.0765 299.01 79.7862 297.956 80.1974C296.46 80.78 294.791 80.7388 293.326 80.0834C290.38 78.7742 288.407 73.4005 287.022 70.4953L281.418 58.729L275.238 45.9363C272.551 40.3602 267.948 34.0245 276.396 30.9733C281.331 30.6923 282.367 33.4381 284.17 37.3114C285.139 39.3941 286.125 41.5246 287.094 43.614L295.72 61.9732Z" fill="#181A1B"/>
<path d="M234.259 30.3242C239.067 30.0313 248.669 31.1004 247.2 38.3655C246.064 43.9882 239.441 41.7243 235.498 41.6437C231.125 41.5547 224.966 42.8617 223.813 47.8921C223.299 50.0566 223.441 52.4772 223.448 54.6955L223.501 68.0095C223.518 72.5565 224.538 77.3221 220.38 80.1282C215.344 81.9041 211.314 79.8414 211.253 74.2472C211.135 63.2948 211.174 52.373 211.183 41.4163C211.185 37.9562 210.523 32.8454 214.576 31.29C218.371 29.9073 221.265 31.0191 223.202 34.4073C227.046 31.793 229.617 30.7953 234.259 30.3242Z" fill="#181A1B"/>
<path d="M419.068 30.3251C423.087 29.9985 428.087 30.5405 431 33.6899C432.789 35.6238 432.547 39.2768 430.582 40.9736C427.886 43.1489 424.018 41.7749 420.907 41.6685C416.187 41.5069 409.776 42.65 408.609 48.1017C408.039 50.7674 408.396 53.6063 408.306 56.3157C408.078 63.0183 408.915 70.0318 407.971 76.6555C407.792 77.9036 406.795 78.9124 405.91 79.7263C402.513 81.4257 397.136 81.0253 396.397 76.6172C395.853 73.3684 396.04 69.6801 396.035 66.3638L396.033 51.8046C396.035 46.8174 396.018 41.8403 396.096 36.8506C396.157 33.0263 398.312 30.8148 402.224 30.7588C405.19 30.7163 406.618 31.9852 408.039 34.3836C411.941 31.7818 414.407 30.8143 419.068 30.3251Z" fill="#181A1B"/>
<path d="M258.715 30.7795C260.052 30.711 261.313 30.8618 262.543 31.4188C263.768 31.9734 264.987 33.0827 265.417 34.382C266.266 36.9473 266.074 70.1879 265.808 74.8387C265.762 75.6419 265.697 76.4659 265.312 77.1891L265.241 77.3189C264.104 79.4426 262.949 80.0582 260.711 80.6451C258.152 80.7546 254.118 79.7116 253.778 76.6739C253.028 69.9674 253.477 62.918 253.381 56.1382C253.289 49.5813 253.378 42.9277 253.499 36.3718C253.621 33.0434 255.728 31.5138 258.715 30.7795Z" fill="#181A1B"/>
<path d="M379.307 66.6057C383.583 66.1124 387.443 69.1708 387.919 73.4245C388.394 77.6782 385.3 81.505 381.022 81.9563C376.773 82.4045 372.958 79.3533 372.488 75.129C372.015 70.905 375.063 67.0956 379.307 66.6057Z" fill="#181A1B"/>
<path d="M258.041 12.2783C260.698 11.7146 263.454 12.6218 265.249 14.6508C267.044 16.6794 267.598 19.5143 266.698 22.0642C265.798 24.6142 263.584 26.4824 260.908 26.9504C256.873 27.6557 253.013 25.0158 252.232 21.0151C251.449 17.0147 254.033 13.1284 258.041 12.2783Z" fill="#181A1B"/>
</svg>
