<?xml version="1.0" encoding="UTF-8" standalone="no"?>
<svg
   xmlns:dc="http://purl.org/dc/elements/1.1/"
   xmlns:cc="http://creativecommons.org/ns#"
   xmlns:rdf="http://www.w3.org/1999/02/22-rdf-syntax-ns#"
   xmlns:svg="http://www.w3.org/2000/svg"
   xmlns="http://www.w3.org/2000/svg"
   xmlns:sodipodi="http://sodipodi.sourceforge.net/DTD/sodipodi-0.dtd"
   xmlns:inkscape="http://www.inkscape.org/namespaces/inkscape"
   viewBox="0 0 77.0036 200"
   width="77.003593"
   height="200.000000"
   version="1.1"
   id="svg2652"
   sodipodi:docname="maextro-logo-pad.svg"
   inkscape:version="1.0.1 (3bc2e813f5, 2020-09-07)">
  <metadata
     id="metadata2658">
    <rdf:RDF>
      <cc:Work
         rdf:about="">
        <dc:format>image/svg+xml</dc:format>
        <dc:type
           rdf:resource="http://purl.org/dc/dcmitype/StillImage" />
      </cc:Work>
    </rdf:RDF>
  </metadata>
  <defs
     id="defs2656" />
  <sodipodi:namedview
     pagecolor="#ffffff"
     bordercolor="#666666"
     borderopacity="1"
     objecttolerance="10"
     gridtolerance="10"
     guidetolerance="10"
     inkscape:pageopacity="0"
     inkscape:pageshadow="2"
     inkscape:window-width="1920"
     inkscape:window-height="1001"
     id="namedview2654"
     showgrid="false"
     inkscape:zoom="2.075"
     inkscape:cx="38.501797"
     inkscape:cy="100"
     inkscape:window-x="-9"
     inkscape:window-y="-9"
     inkscape:window-maximized="1"
     inkscape:current-layer="svg2652" />
  <g
     id="g2650"
     style="fill:#000000">
    <path
       d="M38.6175 0L77.0036 38.1429L77.0036 161.861L39.3802 199.24L38.6175 200C13.8894 175.58 1.03656 162.886 0.0589399 161.919L0.0143744 161.874L0 38.1393L38.6175 0ZM37.4473 161.857L6.60901 161.857L37.4473 192.327L37.4473 161.857ZM70.3888 161.857L39.7878 161.857L39.7878 192.32L70.3888 161.857ZM48.2392 130.409L40.153 159.532L69.9935 159.532L48.2392 130.409ZM28.9333 130.394L7.01516 159.535L37.0799 159.535L28.9333 130.394ZM15.7541 116.744L4.6818 116.744L4.6818 156.351L15.7541 116.744ZM72.3196 116.744L61.3286 116.744C62.4068 120.628 63.613 124.97 65.022 130.039C65.408 131.43 65.7545 132.682 66.07 133.816L66.2548 134.484C67.6378 139.47 68.3732 142.116 69.0633 144.602L69.1409 144.879C69.1481 144.909 69.1574 144.939 69.1668 144.969L69.2559 145.295L69.3192 145.523L69.3846 145.754C69.9158 147.667 70.4751 149.686 71.3413 152.8C71.8653 154.689 72.104 155.551 72.3124 156.3L72.3196 156.324L72.3196 116.744ZM25.1163 116.744L18.1809 116.744L7.47809 155.035L28.139 127.565L25.1163 116.744ZM58.9018 116.744L52.0318 116.744L49.0271 127.568L69.5241 155.005C69.4026 154.568 69.2595 154.052 69.0841 153.419C68.2301 150.348 67.673 148.342 67.1483 146.449L67.085 146.219L67.0053 145.939L66.8507 145.381L66.8227 145.281L66.7688 145.081L66.74 144.979L66.6832 144.775C66.0564 142.521 65.3663 140.035 64.1752 135.744L63.9977 135.101C63.6382 133.794 63.2278 132.324 62.7641 130.656C61.2818 125.319 60.0232 120.784 58.9018 116.744L58.9018 116.744ZM37.4473 119.077L30.7024 128.044L37.4473 152.168L37.4473 119.077ZM39.7878 119.098L39.7878 152.107L46.4673 128.042L39.7878 119.098ZM36.2813 116.744L27.5424 116.744L29.9145 125.211L36.2813 116.744ZM49.6057 116.744L40.9415 116.744L47.258 125.198L49.6057 116.744ZM72.3211 85.5815L4.6818 85.5815L4.6818 114.419L72.3196 114.419L72.3211 85.5815ZM65.8774 96.7443C68.1417 96.7443 69.9805 98.2557 69.9805 100.116C69.9805 101.977 68.1417 103.489 65.8774 103.489C63.613 103.489 61.7742 101.977 61.7742 100.116C61.7742 98.2557 63.6123 96.7443 65.876 96.7443L65.8774 96.7443ZM26.4763 96.935L33.1112 96.935L33.1112 98.2586L27.9356 98.2586L27.9356 99.3143L32.5908 99.3143L32.5908 100.63L27.9348 100.63L27.9348 101.979L33.6374 101.979L33.6374 103.299L26.4785 103.299L26.4763 96.935ZM58.7336 96.935C59.2599 96.9434 59.7147 97.1268 60.098 97.4852C60.4814 97.8437 60.6932 98.2837 60.7336 98.8052C60.7739 99.3267 60.6323 99.7936 60.3086 100.206C59.9849 100.619 59.5637 100.869 59.0448 100.957L61.2804 103.298L59.4797 103.298L57.2513 100.981L55.0366 100.981L55.0366 103.298L53.5816 103.298L53.5816 96.935L58.7336 96.935ZM52.0404 96.935L52.0404 98.2543L48.7086 98.2507L48.7086 103.299L47.2537 103.299L47.2537 98.2507L43.9211 98.2543L43.9211 96.935L52.0404 96.935ZM37.0828 96.935L39.0474 99.0607L41.0113 96.935L42.9608 96.935L40.0257 99.8815L43.4122 103.298L41.4649 103.298L39.0495 100.861L36.6342 103.298L34.6848 103.298L38.0748 99.8815L35.1362 96.935L37.0828 96.935ZM22.1403 96.935L25.5016 103.298L23.9287 103.298L23.2308 101.964L19.055 101.964L18.3419 103.298L16.7705 103.298L20.1318 96.935L22.1403 96.935ZM8.47801 96.935L11.3879 100.879L14.2977 96.935L15.7519 96.935L15.7519 103.298L14.297 103.298L14.297 99.155L11.3871 103.121L8.47728 99.155L8.47728 103.298L7.02234 103.298L7.02234 96.935L8.47801 96.935ZM65.8774 98.0636C65.1239 98.0507 64.4618 98.2888 63.8912 98.7779C63.6825 98.9376 63.52 99.1349 63.4037 99.3697C63.2873 99.6046 63.2292 99.8529 63.2292 100.115C63.2292 100.376 63.2874 100.625 63.4037 100.86C63.52 101.094 63.6825 101.292 63.8912 101.451C64.4662 101.929 65.1282 102.167 65.8774 102.167C66.6265 102.167 67.2886 101.929 67.8635 101.451C68.0723 101.292 68.2348 101.094 68.3511 100.86C68.4674 100.625 68.5256 100.376 68.5256 100.115C68.5256 99.8529 68.4674 99.6046 68.3511 99.3697C68.2348 99.1349 68.0723 98.9376 67.8635 98.7779C67.2925 98.2884 66.63 98.0503 65.876 98.0636L65.8774 98.0636ZM21.1368 97.9922L19.7616 100.649L22.5594 100.649L21.1368 97.9922ZM58.6171 98.2557L55.0366 98.2557L55.0366 99.6621L58.6157 99.6621C59.055 99.631 59.2747 99.3966 59.2747 98.9589C59.2747 98.5212 59.055 98.2868 58.6157 98.2557L58.6171 98.2557ZM7.47809 44.9629L18.1809 83.2557L25.1134 83.2557L28.139 72.4321C25.2766 68.6271 23.2875 65.9807 21.3776 63.4436L21.1619 63.1579L20.7968 62.6743L20.6192 62.4371L20.4388 62.1979L20.3482 62.0771L20.1663 61.835C18.0098 58.965 15.7412 55.9514 12.2246 51.2771C10.0314 48.3607 9.07678 47.0914 8.21561 45.9464L8.14373 45.8486L8.00786 45.6672L7.91657 45.5464L7.47809 44.9629ZM72.3175 43.6721L61.3271 83.2557L72.3175 83.2557L72.3175 43.6721ZM4.6818 43.6464L4.6818 83.2557L15.7519 83.2557L4.6818 43.6464ZM69.5248 44.9929L49.0278 72.4329C50.1484 76.4657 51.134 80.0164 52.0325 83.2564L58.9018 83.2564L69.5248 44.9929ZM47.258 74.8L40.9415 83.2557L49.6057 83.2557L47.258 74.8ZM29.9109 74.7857L27.5388 83.2557L36.282 83.2557C33.7632 79.9071 31.6829 77.1421 29.9117 74.7864L29.9109 74.7857ZM37.4465 47.83L30.7017 71.9536C32.539 74.3979 34.7272 77.3072 37.4465 80.9186L37.4465 47.83ZM39.7871 47.8879L39.7871 80.8993L46.4666 71.955C44.6486 65.4071 42.4842 57.605 39.7878 47.8886L39.7871 47.8879ZM37.0799 40.465L7.01516 40.465C7.18624 40.6886 7.40333 40.9814 7.73831 41.4257C8.62032 42.5979 9.18964 43.3543 9.73022 44.0721L9.84523 44.2257L9.96241 44.3793L10.0185 44.4564L10.1098 44.5771C10.1472 44.6286 10.1817 44.6771 10.2219 44.7257L10.2995 44.8279C11.1118 45.9093 12.083 47.2 14.1029 49.8836C17.3952 54.2628 19.5927 57.1843 21.6335 59.8943L21.8211 60.1443L22.0037 60.3886C22.0971 60.5114 22.1884 60.635 22.2797 60.7557L22.5328 61.0907L22.7556 61.3857L22.9777 61.6814L23.0891 61.8293L23.3127 62.1264L28.9319 69.5993L37.0799 40.465ZM69.9956 40.465L40.153 40.465C43.497 52.5093 46.1021 61.8936 48.2392 69.5864L69.9956 40.465ZM37.4473 7.66786L6.60901 38.14L37.4473 38.14L37.4473 7.66786ZM39.7878 7.67429L39.7878 38.1393L70.3888 38.1393L39.7878 7.67429Z"
       fill="rgb(255,255,255)"
       fill-rule="nonzero"
       id="path2648"
       style="fill:#000000" />
  </g>
</svg>
