<svg xmlns="http://www.w3.org/2000/svg" xml:space="preserve" viewBox="0 0 374.4 190.1"><path d="M99.6 95c.1 17.1-2.3 33.9-8.7 49.9-3.1 7.8-7.1 15.2-12.6 21.6-3.2 3.8-6.9 7.2-11.2 9.7-9.9 5.7-19.9 5.7-29.8-.1-5.3-3.1-9.5-7.3-13.1-12.1-6.9-9.1-11.3-19.4-14.4-30.3-4.1-14.6-5.6-29.4-5-44.6.7-14.2 3-28.1 7.9-41.4 3.3-8.8 7.5-17.1 13.7-24.3 3.6-4.2 7.7-7.9 12.7-10.4 8.7-4.4 17.5-4.5 26.2 0 6.1 3.1 10.8 7.6 14.9 13 6.6 8.7 10.9 18.5 14 28.9 3.2 10.7 4.9 21.6 5.4 32.8.1 2.3 0 4.8 0 7.3m-91.2-.6c0 12.1 1.2 23 3.9 33.8s6.6 21 13 30.2c3.7 5.3 8.1 9.9 13.7 13.2 9 5.1 18 5.1 26.8-.2 2.5-1.5 4.9-3.4 7-5.4 6.8-6.5 11.3-14.4 14.7-23 4.9-12.2 7.4-24.9 8.3-38 1-14.9-.3-29.5-4-43.9C89.1 50.6 85 40.7 78.7 32c-3.5-4.8-7.5-9-12.6-12-9.1-5.4-18.3-5.4-27.4-.1-3.2 1.9-6 4.3-8.5 7-5.8 6.2-9.9 13.5-13.1 21.3-6.2 15.2-8.6 31-8.7 46.2m209.2-61.7h46.9c4.2 0 7.9 1.2 10.9 4.2 7.3 7.2 5.2 19.3-4 23.7-.7.3-1.4.6-2.4 1.1 3.1 4.2 6.1 8.2 9.4 12.5-.7.1-1.2.3-1.7.3-2.3 0-4.6-.1-7 0-1.3.1-2.1-.4-2.8-1.4-2.3-3.2-4.8-6.4-7.2-9.6-.8-1.1-1.6-1.5-3-1.5-7.3.1-14.5 0-21.8 0h-2.8v-8.5c.8 0 1.7-.1 2.5-.1h30c3.4 0 5.8-1.8 6.5-4.9.8-3.4-1.8-6.9-5.3-7.2h-37.4c-.8 0-1.6.1-2.5.1v32.9h-8.3zm-51.9 0c4.6 0 9.3-.1 13.9 0 10.6.3 19.4 9.3 19.8 19.9.4 11.3-8.4 21.7-21 21.7-8.6.1-17.3.1-25.9 0-11.3-.1-20.4-9.1-20.7-20.4-.2-10.5 6.9-18.6 15.9-20.7 1.9-.5 3.9-.5 5.9-.6 4.1 0 8.1.1 12.1.1m0 8.5H153c-1.1 0-2.3 0-3.3.3-6.9 1.8-9.8 8.1-9.3 13.1.7 6.4 5.9 11.1 12.3 11.2h25.6c7.1 0 12.5-5.4 12.5-12.4 0-7.1-6.2-12.5-12.4-12.2-4.2.2-8.4 0-12.7 0m203.9 33.2c-3.3 0-6.3.1-9.3-.1-.5 0-1.2-.7-1.5-1.3-1.7-3-3.3-6-5-9-.4-.7-.8-1.4-1.2-2.2h-37.8c1.6-3 3.1-5.7 4.6-8.5h28.7c-1.9-3.3-3.5-6.4-5.4-9.1-1.4-2-3.7-3-6.3-3-3.8 0-7.7.1-11.5 0-4-.1-6.8 1.8-8.7 5.2-3.1 5.8-6.3 11.6-9.5 17.5-1.6 2.9-3.3 5.9-4.8 8.9-.6 1.3-1.4 1.7-2.8 1.6-2.6-.1-5.2 0-8.1 0 .3-.8.5-1.4.8-1.9 5.7-10.5 11.3-20.9 17-31.3 3-5.5 7.7-8.4 14-8.4 5 0 10.1-.1 15.1 0 5.9.1 10.5 2.8 13.3 7.9 6 10.7 11.8 21.6 17.6 32.4.4.2.6.6.8 1.3m-22.7 76.1c2.1-11.2 4.2-22.2 6.3-33.3h9.4c-2.1 11.1-4.1 22.1-6.2 33.3 4.1.2 8 0 12.1.1v6.1c-1.6.5-48.1.7-51.6.1v-6.3h12.3c-1.1-5.8-2.1-11.4-3.2-16.9-1-5.5-2-10.9-3.1-16.6h9.4q3.15 16.5 6.3 33.3c2.8.2 5.4.2 8.3.2M169 157.3h-25.5c-6.1 0-9.9-3.8-9.9-9.9V106c0-3.4 1.3-4.7 4.6-4.7h35c.6 0 1.2.1 2.1.1-.7 2.2-1.3 4.2-2.1 6.5h-25.8c-3.1 0-3.6.5-3.6 3.7V147c0 3 .7 3.7 3.6 3.7h23.5c-.5 2.2-1.2 4.3-1.9 6.6m125.2-23.5c-3.2.6-6 1.1-8.9 1.6v-6.5c3-.6 5.8-1.2 8.8-1.8v-16.7h-8.8v-6.6h8.8v-5.7h10.2v5.6h9v6.6h-8.8v14.8c2.9-.5 5.7-1 8.8-1.5v6.5c-2.8.6-5.7 1.2-8.8 1.8 0 .7-.1 1.5-.1 2.3 0 4.4-.2 8.8 0 13.2.2 6-4.3 10.3-10.2 10.1-2.9-.1-5.9 0-8.9 0v-6.6h3.4c1 0 2.1.1 3.1 0 1.4-.1 2.3-.9 2.4-2.2.1-5.1 0-9.9 0-14.9M190 117.2h9.3c-1.4 4.2-2.7 8.3-4.1 12.7h9c.8 2.3 1.5 4.4 2.2 6.5 1.3 3.9 2.5 7.9 3.9 11.8.7 2 1.2 2.4 3.3 2.4 1 0 2.1 0 3.1.1.1 0 .1.1.3.3v6.1c-3.1 0-6.2.3-9.1-.1-3.3-.4-5.1-2.7-6.1-5.7-1.9-6-3.9-12-5.8-18-.2-.7-.5-1.3-.9-2.6-.4 1.1-.8 1.8-1 2.5-1.9 5.9-3.8 11.8-5.8 17.7-1.5 4.5-3.9 6.3-8.7 6.3H173c.8-2.4 1.4-4.4 2-6.3q.45-.3.6-.3c3.4-.2 3.4-.2 4.5-3.5 3-9.2 6-18.5 9-27.7.4-.7.7-1.4.9-2.2"/><path d="M165.7 129.2c3.2 5.1 6.3 10 9.7 15.5-3.4 0-6.3.1-9.2-.1-.5 0-1-.7-1.4-1.2-1-1.5-2-3.1-3-4.6-.3-.5-.7-1-1.2-1.7-1.3 2.1-2.6 4-3.8 6-.7 1.2-1.6 1.6-2.9 1.6-2.4-.1-4.9 0-7.9 0 3.4-5.4 6.5-10.4 9.8-15.5-3.2-5-6.3-10.1-9.7-15.4h9.8c1.5 2.3 3.1 4.7 4.8 7.4 1.7-2.6 3.3-5 4.9-7.5h9.8c-3.4 5.4-6.5 10.5-9.7 15.5m47.3-7.8h-9.3c.7-2.3 1.4-4.4 2-6.5l1.5-4.5c.5-1.8 0-2.5-1.7-2.5-5.9-.1-11.8 0-17.8 0-.5 1.5-1.1 2.9-1.6 4.4h-9.3c1.6-4.8 3.1-9.5 4.6-14.2h9.3c-.3 1.1-.5 2.1-.7 3.3h20.8c4.5 0 7.5 3.7 6.3 8-1.3 3.9-2.7 7.9-4.1 12M337.6 98h10.2v5.6H367v6.3c-1.7.5-44.5.7-48.5.2 0-1-.1-2-.1-3v-3.4h19.2zM92.5 93.7c0 15.7-2.1 29.9-7.4 43.4-2.9 7.4-6.6 14.4-12.1 20.2-2.3 2.4-4.9 4.7-7.7 6.5-8.7 5.5-17.6 5.4-26.4 0-4.8-3-8.6-7.1-11.8-11.8-5.8-8.5-9.5-17.9-11.8-27.8-5.2-22.7-4.7-45.2 2.6-67.3 2.9-9 7.1-17.3 13.6-24.3 2-2.1 4.3-4.1 6.7-5.8 9.1-6.3 19.4-6.1 28.4.2 4.7 3.2 8.3 7.4 11.4 12.2 5.6 8.5 9 17.9 11.3 27.8 2.3 9.2 3.3 18.5 3.2 26.7M75.2 74.9c.1-5.4-.6-11.9-2.1-18.3-1.5-6.6-3.7-12.9-7.6-18.5-1.9-2.7-4.1-5.1-7-6.8-4.2-2.4-8.6-2.5-12.7.1-1.9 1.2-3.6 2.7-5 4.4-3.9 4.4-6.3 9.8-8 15.4-4.5 15-4.7 30.2-1.2 45.4 1.5 6.5 3.9 12.6 7.9 18.1 1.6 2.2 3.5 4.2 5.8 5.6 4.6 2.9 9.2 2.9 13.7-.1 2-1.4 3.8-3.2 5.4-5.1 2.6-3.1 4.3-6.7 5.8-10.4 3.6-9.2 5-18.8 5-29.8m-35.1 71.2c0 6.7 5.5 12.2 12.2 12.2s12.2-5.5 12.2-12.2c0-5.5-4.1-12.2-12.2-12.2-7.6 0-12.1 6.1-12.2 12.2"/></svg>